<?xml version="1.0" encoding="UTF-8" standalone="no"?>
<!-- Created with Inkscape (http://www.inkscape.org/) -->

<svg
   width="106.58508mm"
   height="62.71154mm"
   viewBox="0 0 106.58508 62.71154"
   version="1.1"
   id="svg1"
   xml:space="preserve"
   sodipodi:docname="path1.svg"
   inkscape:version="1.4.2 (f4327f4, 2025-05-13)"
   xmlns:inkscape="http://www.inkscape.org/namespaces/inkscape"
   xmlns:sodipodi="http://sodipodi.sourceforge.net/DTD/sodipodi-0.dtd"
   xmlns="http://www.w3.org/2000/svg"
   xmlns:svg="http://www.w3.org/2000/svg"><sodipodi:namedview
     id="namedview1"
     pagecolor="#ffffff"
     bordercolor="#000000"
     borderopacity="0.25"
     inkscape:showpageshadow="2"
     inkscape:pageopacity="0.0"
     inkscape:pagecheckerboard="0"
     inkscape:deskcolor="#d1d1d1"
     inkscape:document-units="mm"
     showguides="false"
     inkscape:zoom="2.4851066"
     inkscape:cx="219.70888"
     inkscape:cy="113.47602"
     inkscape:window-width="1920"
     inkscape:window-height="1051"
     inkscape:window-x="-9"
     inkscape:window-y="-9"
     inkscape:window-maximized="1"
     inkscape:current-layer="g4"><inkscape:page
       x="0"
       y="0"
       width="106.58508"
       height="62.71154"
       id="page2"
       margin="0"
       bleed="0" /></sodipodi:namedview><defs
     id="defs1" /><g
     inkscape:label="Capa 1"
     inkscape:groupmode="layer"
     id="layer1"
     transform="translate(-56.987992,-85.788458)"><g
       id="g1"
       transform="matrix(0.94206393,0,0,0.88760366,4.0141485,25.194383)"><g
         id="g4"
         transform="translate(32.942291,-47.317171)"><path
           id="path2"
           style="fill:#ebb43d"
           d="m 59.886114,115.58421 -0.212287,0.98334 c -0.301973,1.40023 -0.690391,2.18835 -1.414697,2.87084 -0.62053,0.58471 -1.399306,0.96109 -2.674705,1.29248 l -0.614919,0.16011 0.900711,0.23172 c 2.142611,0.55197 3.195514,1.65207 3.910028,4.08414 l 0.238617,0.81101 0.192539,-0.88204 c 0.471138,-2.15694 1.39213,-3.18513 3.484357,-3.89027 l 1.047721,-0.35281 -0.524409,-0.1473 c -2.397203,-0.67196 -3.530794,-1.84158 -4.110795,-4.24192 z m 0.07405,3.89435 0.713108,0.72717 0.71256,0.72659 -0.744924,0.69864 -0.745473,0.69864 -0.554579,-0.59385 c -0.304969,-0.32673 -0.637443,-0.62242 -0.738889,-0.65672 -0.13052,-0.0441 0.04123,-0.28716 0.586943,-0.83138 z m 28.754172,14.83915 c -0.416181,-0.0127 -0.861085,0.18237 -1.219963,0.62936 -0.21355,0.26592 -0.30554,0.53606 -0.30554,0.89601 0,0.69553 0.14058,0.92531 0.73889,1.20807 0.49846,0.23556 0.506453,0.24914 0.432253,0.7656 -0.08311,0.57866 -0.376222,0.90382 -1.786062,1.98356 -0.50104,0.38373 -0.914659,0.82873 -1.108609,1.19176 -0.30501,0.57091 -0.310326,0.62739 -0.348326,3.92637 -0.03053,2.65155 -0.07529,3.40265 -0.215578,3.61256 -0.23731,0.35504 -0.224127,0.97213 0.02688,1.2628 0.29297,0.33923 0.96443,0.31088 1.20625,-0.0506 0.24337,-0.36413 0.247147,-0.92494 0.0071,-1.13355 -0.15541,-0.13518 -0.185214,-0.67722 -0.183214,-3.40588 0.0024,-3.80625 0.0091,-3.83033 1.355454,-4.92368 1.4705,-1.19422 1.688665,-1.47304 1.784965,-2.28048 0.07063,-0.59246 0.16135,-0.79597 0.50521,-1.13588 0.34656,-0.34261 0.41892,-0.5072 0.41854,-0.95248 -8.31e-4,-0.97331 -0.614645,-1.57232 -1.30828,-1.59349 z m -0.04059,1.00721 c 0.189694,-0.005 0.285205,0.0748 0.381787,0.29693 0.12018,0.27649 0.107267,0.37344 -0.07954,0.58977 -0.3073,0.35585 -0.654892,0.3247 -0.828302,-0.0739 -0.18476,-0.42499 -0.0078,-0.74987 0.438835,-0.80577 0.03122,-0.004 0.06012,-0.006 0.08722,-0.007 z m -0.138233,7.21465 c -1.31553,0 -1.794871,1.87001 -0.659351,2.57216 l 0.421831,0.26025 v 2.75672 2.75673 l -0.368074,0.28469 c -0.4611,0.35728 -0.782563,0.99419 -0.692263,1.37109 0.09354,0.39058 0.543345,0.97143 0.861215,1.112 0.4258,0.18831 0.976302,0.0205 1.352712,-0.41278 0.30653,-0.35291 0.344777,-0.48139 0.291277,-0.97868 -0.04085,-0.37975 -0.169733,-0.69135 -0.383433,-0.92512 l -0.322544,-0.35223 v -2.81029 -2.8097 l 0.365879,-0.32254 c 0.91638,-0.80812 0.329111,-2.5023 -0.867249,-2.5023 z m 0.04388,0.82847 c 0.391462,0.0114 0.621995,0.53056 0.26385,0.9059 -0.22445,0.23517 -0.28433,0.24158 -0.57652,0.0635 -0.29383,-0.17937 -0.274681,-0.72208 0.03127,-0.89367 0.08448,-0.0474 0.166275,-0.0709 0.243005,-0.0751 0.01295,-7.1e-4 0.02577,-9.5e-4 0.0384,-5.8e-4 z m 0.017,8.50247 c 0.140784,0.003 0.264154,0.0895 0.365331,0.25792 0.09863,0.1641 0.09875,0.28768 5.49e-4,0.45179 -0.22499,0.37616 -0.640885,0.35742 -0.812395,-0.0373 -0.13081,-0.30079 -0.119152,-0.36979 0.08886,-0.52922 0.128074,-0.0982 0.248153,-0.14579 0.357651,-0.14322 z" /><path
           style="fill:#065066;fill-opacity:1"
           d="m 73.931904,185.50946 -0.606001,-0.72738 -0.922734,0.36178 c -0.799849,0.31361 -1.10324,0.36255 -2.278151,0.36747 -1.587322,0.007 -2.478322,-0.25922 -3.640445,-1.08632 -0.881943,-0.62768 -1.346946,-1.21118 -1.899909,-2.38405 -1.548505,-3.28448 -0.245995,-7.45203 2.799179,-8.95635 2.45775,-1.21412 5.208264,-0.76081 7.200535,1.18673 1.350589,1.32026 1.972709,3.03794 1.854799,5.12114 -0.0744,1.3152 -0.39357,2.32295 -1.05931,3.34512 l -0.490339,0.75285 0.661739,0.68492 c 0.36396,0.3767 0.63503,0.73021 0.60238,0.78558 -0.0632,0.10722 -1.505687,1.2759 -1.574801,1.2759 -0.02252,0 -0.313641,-0.32733 -0.646942,-0.72739 z m -2.517283,-2.39835 0.395907,-0.16931 -0.730965,-0.8384 -0.730966,-0.8384 0.666635,-0.63334 0.666635,-0.63334 0.780215,0.81042 c 0.44357,0.46075 0.839497,0.77203 0.917608,0.72144 0.07557,-0.049 0.259947,-0.33203 0.409737,-0.62908 0.230158,-0.45642 0.27283,-0.75011 0.275483,-1.89603 0.0027,-1.14595 -0.04074,-1.45597 -0.280185,-2.00166 -0.35746,-0.81464 -1.019585,-1.5385 -1.811411,-1.9803 -0.53888,-0.30066 -0.755092,-0.34309 -1.725076,-0.33852 -0.957971,0.005 -1.196015,0.0526 -1.748172,0.35299 -1.108619,0.60316 -1.764711,1.46377 -2.089372,2.74067 -0.357623,1.40654 -0.139424,2.81299 0.615429,3.9669 1.007793,1.54057 2.72808,2.07603 4.388498,1.36596 z m -29.984525,2.14681 c -1.174603,-0.39223 -2.198176,-1.33375 -2.709191,-2.49202 -0.214681,-0.48659 -0.262632,-0.83563 -0.259415,-1.88832 0.0035,-1.14901 0.04084,-1.36561 0.338625,-1.9646 0.850702,-1.7112 2.288576,-2.61676 4.15495,-2.61676 1.904432,0 3.400639,0.9682 4.177012,2.70296 0.274753,0.61391 0.320508,0.89129 0.320508,1.94297 0,1.01881 -0.04799,1.32891 -0.283008,1.82891 -0.451858,0.96132 -1.183114,1.73255 -2.082922,2.19681 -0.708078,0.36533 -0.9571,0.42391 -1.934225,0.455 -0.758923,0.0242 -1.315761,-0.0292 -1.722334,-0.16495 z m 2.581288,-1.99581 c 0.986505,-0.5005 1.480336,-1.76854 1.231068,-3.16108 -0.09985,-0.55783 -0.83255,-1.45221 -1.390086,-1.69683 -0.836997,-0.36723 -2.086094,-0.10454 -2.638324,0.55484 -0.88459,1.05624 -0.834313,3.06229 0.09892,3.94675 0.669589,0.63461 1.844202,0.78971 2.698426,0.35632 z m 7.077064,1.99419 c -0.524944,-0.23858 -0.943161,-0.63515 -1.213031,-1.15025 -0.166118,-0.31706 -0.210666,-0.88574 -0.245321,-3.13161 l -0.04234,-2.74421 h -0.72873 -0.728729 v -0.8394 -0.8394 h 0.739318 0.739319 v -1.22682 -1.22682 h 1.108978 1.108977 v 1.22682 1.22682 h 0.985758 0.985758 v 0.8394 0.8394 h -1.016563 -1.016563 l 0.0031,2.40315 c 0.0031,2.39909 0.0037,2.40359 0.308049,2.66219 0.252586,0.21459 0.426482,0.24751 1.01342,0.19187 l 0.708513,-0.0672 v 0.8764 0.87639 l -0.547443,0.14447 c -0.751284,0.19827 -1.647358,0.17289 -2.162511,-0.0612 z m 6.591376,0.0322 c -2.179972,-0.75412 -3.276164,-2.66159 -2.998381,-5.21745 0.342664,-3.15281 3.829808,-4.81734 6.360491,-3.03607 0.982389,0.69147 1.596861,1.9145 1.717105,3.41767 l 0.07015,0.87691 -2.636291,0.0125 c -1.44996,0.007 -2.849647,0.002 -3.110416,-0.0108 l -0.474125,-0.0233 0.08493,0.43049 c 0.37833,1.9177 2.413286,2.58455 4.440223,1.45504 0.310201,-0.17286 0.579453,-0.31429 0.598339,-0.31429 0.01888,0 0.219604,0.29965 0.44604,0.66589 l 0.411702,0.66589 -0.360145,0.30361 c -0.658598,0.55521 -1.618983,0.85522 -2.88615,0.90157 -0.745521,0.0273 -1.349563,-0.0191 -1.663467,-0.12768 z m 3.075091,-5.54089 c -0.360405,-1.25235 -0.890095,-1.71109 -1.975705,-1.71109 -0.630497,0 -0.820475,0.0572 -1.201522,0.3618 -0.439951,0.35169 -0.700986,0.75361 -0.876315,1.34929 l -0.08552,0.29056 h 2.111343 2.111343 z m 19.675842,5.5454 c -0.59937,-0.23863 -1.33382,-0.92843 -1.65138,-1.551 -0.26107,-0.51181 -0.2775,-0.71319 -0.31543,-3.86526 l -0.04,-3.32533 h 1.05657 1.05657 l 1.9e-4,2.7442 c 2.2e-4,3.08281 0.0744,3.42351 0.84728,3.8913 0.91655,0.55474 2.05455,0.19331 2.56279,-0.81395 0.2725,-0.54007 0.28633,-0.69437 0.28633,-3.19452 v -2.62703 h 1.04737 1.04737 v 4.39594 4.39595 l -1.01657,-0.0375 -1.01656,-0.0375 v -0.66882 -0.66882 l -0.35077,0.44658 c -0.52064,0.66283 -1.22328,0.98908 -2.23684,1.03861 -0.50208,0.0245 -1.03571,-0.0268 -1.27692,-0.12283 z m 10.48979,-0.0764 c -1.54563,-0.60006 -2.4767,-1.82824 -2.75399,-3.6328 -0.40492,-2.63509 1.27927,-5.02559 3.70298,-5.25592 2.51061,-0.23859 4.43968,1.62066 4.43968,4.27899 v 0.72268 l -0.64691,0.008 c -0.3558,0.004 -1.74202,0.002 -3.08049,-0.006 -2.74359,-0.0155 -2.64828,-0.0578 -2.20036,0.9758 0.66194,1.52741 2.40916,1.88998 4.24904,0.88172 0.34184,-0.18733 0.63785,-0.29007 0.6578,-0.22831 0.02,0.0618 0.2031,0.37379 0.407,0.69341 l 0.37072,0.58112 -0.33156,0.28142 c -1.00562,0.85356 -3.48845,1.2146 -4.81391,0.70001 z m 3.34318,-5.53357 c -0.2186,-0.98694 -0.84292,-1.58812 -1.74342,-1.6788 -0.64531,-0.065 -1.36546,0.21839 -1.78209,0.70124 -0.1865,0.21614 -0.58999,1.08057 -0.58999,1.26397 0,0.0378 0.94369,0.0687 2.09708,0.0687 h 2.09708 z m 4.54526,5.47326 c -0.80466,-0.31954 -1.39185,-0.66918 -1.38925,-0.82724 8.4e-4,-0.0516 0.18241,-0.42664 0.40348,-0.83335 l 0.40195,-0.73948 0.39929,0.25449 c 0.59037,0.37627 1.797633,0.77248 2.353763,0.77248 0.59202,0 1.24554,-0.5093 1.24554,-0.97065 0,-0.46623 -0.518,-0.79049 -1.73002,-1.08295 -2.272283,-0.54832 -3.006883,-1.36307 -2.781663,-3.08518 0.11543,-0.88262 0.55429,-1.48667 1.3941,-1.91886 0.65191,-0.33548 0.82864,-0.36725 2.008613,-0.361 1.04275,0.006 1.43083,0.0635 1.99997,0.29892 0.3884,0.16064 0.73986,0.34919 0.78103,0.419 0.0412,0.0698 -0.0791,0.49723 -0.26721,0.94982 l -0.34206,0.82288 -0.73396,-0.3883 c -0.96963,-0.51298 -1.8515,-0.60385 -2.39273,-0.24655 -0.299643,0.19782 -0.400463,0.35735 -0.400463,0.63368 0,0.54721 0.310613,0.75282 1.573743,1.04175 0.62676,0.14336 1.33274,0.35673 1.56885,0.47415 0.58243,0.28966 1.14032,0.98481 1.24079,1.54608 0.24062,1.34424 -0.29109,2.45291 -1.4831,3.09241 -0.63682,0.34165 -0.86888,0.39286 -1.90513,0.42047 -0.987973,0.0263 -1.304563,-0.018 -1.945533,-0.27257 z m 9.021273,0.0628 c -1.15212,-0.55447 -1.29381,-1.02947 -1.29381,-4.33741 v -2.6515 h -0.73931 -0.73932 v -0.8394 -0.8394 h 0.67771 0.6777 v -0.43304 c 0,-0.23818 0.0356,-0.79025 0.0792,-1.22682 l 0.0792,-0.79378 h 0.96821 0.9682 v 1.22682 1.22682 h 0.92415 0.92415 v 0.8394 0.8394 h -0.86254 -0.86254 v 2.3797 2.3797 l 0.33885,0.28122 c 0.28288,0.23476 0.44572,0.26985 0.98576,0.21241 l 0.64691,-0.0688 v 0.87931 0.87931 l -0.54745,0.14447 c -0.79788,0.21056 -1.66246,0.17233 -2.225,-0.0984 z m -81.263421,-6.15418 v -6.26791 l 1.198644,0.037 1.198645,0.037 2.630657,4.13244 c 1.446861,2.27285 2.667973,4.23095 2.713582,4.35133 0.04561,0.12038 0.06458,-1.75374 0.04215,-4.16473 l -0.04078,-4.38361 h 1.180561 1.18056 v 6.26324 6.26323 h -1.107565 -1.107564 l -0.564008,-0.80711 c -0.310204,-0.44392 -1.572302,-2.39839 -2.804662,-4.34328 l -2.240655,-3.53616 -0.03244,4.34327 -0.03244,4.34328 h -1.107346 -1.107339 z m 90.382521,6.00686 c 0.0435,-0.14358 0.44097,-1.17507 0.8833,-2.29221 0.44233,-1.11714 1.04418,-2.64135 1.33744,-3.38713 0.29327,-0.74577 0.90217,-2.28575 1.35313,-3.42218 0.45095,-1.13642 0.91116,-2.31514 1.02269,-2.61938 l 0.20278,-0.55316 1.15133,0.0366 1.15133,0.0366 0.35063,0.90397 c 0.508,1.30972 1.52109,3.90418 3.07437,7.87324 0.74958,1.91539 1.36287,3.52801 1.36287,3.58361 0,0.0556 -0.54964,0.10108 -1.22143,0.10108 h -1.22142 l -0.33512,-0.93625 c -0.18431,-0.51494 -0.4455,-1.21229 -0.58043,-1.54967 l -0.24532,-0.61341 h -2.43986 -2.43985 l -0.57826,1.54967 -0.57827,1.54966 h -1.16448 c -1.11253,0 -1.16096,-0.0116 -1.08543,-0.26105 z m 7.56437,-5.00136 c -0.0715,-0.19532 -0.46432,-1.31398 -0.873,-2.48592 -0.40869,-1.17194 -0.75424,-2.14402 -0.76788,-2.16019 -0.0281,-0.0333 -1.60775,4.26234 -1.73233,4.71068 l -0.0807,0.29057 h 1.79194 1.79194 z m 6.29701,-1.00082 v -6.26324 h 1.17059 1.17059 v 6.26324 6.26323 h -1.17059 -1.17059 z m -18.97584,1.54966 v -0.96854 h 2.27957 2.27956 v 0.96854 0.96855 h -2.27956 -2.27957 z M 76.340877,167.33285 c -0.7341,-0.29762 -1.418449,-0.69236 -4.11665,-2.37457 -7.750933,-4.83236 -9.413514,-5.9108 -9.969833,-6.46695 -0.353833,-0.35372 -0.758906,-0.94541 -0.985758,-1.43988 l -0.385099,-0.8394 -0.03775,-3.71274 -0.03774,-3.71274 h -0.836501 c -0.957915,0 -1.244355,-0.20131 -1.244355,-0.87454 0,-0.57791 0.371851,-0.80427 1.321224,-0.80427 h 0.773512 v -2.64735 -2.64734 h -0.800929 c -0.923551,0 -1.293807,-0.2566 -1.293807,-0.89665 0,-0.55387 0.385629,-0.78216 1.321224,-0.78216 h 0.773512 v -2.64735 -2.64734 h -0.843441 c -0.960814,0 -1.251295,-0.20008 -1.251295,-0.86185 0,-0.60845 0.322373,-0.81696 1.26308,-0.81696 h 0.812406 l 0.04043,-3.13162 c 0.04016,-3.11037 0.04271,-3.13643 0.376321,-3.84188 0.376769,-0.79671 0.887459,-1.41206 1.555298,-1.87406 0.984126,-0.6808 0.986536,-0.68093 14.074831,-0.75551 12.99869,-0.0741 13.09966,-0.0701 14.27648,0.5591 1.12079,0.59925 1.9474,1.82233 2.06949,3.06211 0.0566,0.57459 0.1045,0.68596 0.26672,0.61999 2.21008,-0.89875 5.05624,-0.31707 6.20827,1.26881 0.383823,0.52835 0.828173,1.44135 0.828173,1.70161 0,0.21815 0.18712,0.31354 1.24083,0.63255 2.15187,0.65147 3.45919,2.81671 3.27319,5.42123 -0.0723,1.01226 -0.0713,1.01643 0.35362,1.55995 0.68598,0.87737 0.96162,1.66793 1.02225,2.93192 0.0605,1.26193 -0.20037,2.32833 -0.82002,3.35183 l -0.34417,0.56846 0.24475,0.58112 c 0.30114,0.71502 0.40491,2.17755 0.21899,3.08615 -0.35711,1.74512 -1.60904,3.42396 -3.14008,4.21085 -0.87216,0.44825 -1.8338,0.70961 -2.610883,0.70961 -0.34578,0 -0.41601,0.0542 -0.48268,0.37228 -0.12829,0.61219 -0.86781,1.38878 -1.76163,1.84994 -0.77052,0.39755 -0.90408,0.42463 -2.05876,0.4175 -0.98347,-0.006 -1.35161,-0.0632 -1.80877,-0.28089 -0.3157,-0.1503 -0.6068,-0.23888 -0.64691,-0.19684 -0.0401,0.042 -0.0729,0.32706 -0.0729,0.63341 0,1.15736 -0.74807,2.49254 -1.82267,3.25314 -0.38683,0.2738 -1.84003,1.19693 -3.22934,2.05138 -1.3893,0.85446 -3.7736,2.32398 -5.29845,3.26559 -1.52484,0.94162 -3.02196,1.8268 -3.32693,1.96707 -0.717,0.32979 -2.46367,0.4301 -3.08723,0.17729 z m 2.34599,-1.82209 c 0.28707,-0.10615 0.83467,-0.38827 1.21689,-0.62694 2.96716,-1.85279 8.18664,-5.09041 9.1971,-5.70493 1.37539,-0.83643 2.06008,-1.49501 2.27984,-2.19286 0.0811,-0.25764 0.12779,-0.4891 0.1037,-0.51435 -0.0241,-0.0252 -0.4039,0.0428 -0.84402,0.15122 -2.13588,0.52616 -4.67836,-0.3502 -6.47619,-2.23225 -2.40426,-2.51691 -3.6271,-6.28985 -3.6271,-11.19104 0,-4.96515 1.15206,-9.0578 3.41922,-12.14662 1.5403,-2.09854 4.42371,-3.70348 6.6536,-3.70348 0.55257,0 0.89374,-0.0527 0.89374,-0.13816 0,-0.3476 -0.77269,-1.27626 -1.27319,-1.53019 -0.53795,-0.27292 -0.55858,-0.27335 -12.97135,-0.26977 -8.253294,0.002 -12.588998,0.0489 -12.89798,0.13849 -0.605389,0.17548 -1.301963,0.82428 -1.58432,1.47567 -0.194708,0.44919 -0.224749,0.88922 -0.227097,3.32644 l -0.0027,2.80877 h 0.700572 c 0.549706,0 0.998343,0.0132 1.222115,0.23352 0.373382,0.36762 0.441043,0.7256 0.04663,1.13895 -0.289341,0.30324 -0.30437,0.25727 -0.970878,0.276 l -0.998439,0.0281 v 2.64848 2.64848 h 0.739318 c 0.834195,0 1.232198,0.27112 1.232198,0.8394 0,0.5666 -0.398349,0.8394 -1.225702,0.8394 H 62.56 l -0.0373,1.77566 c -0.02052,0.97661 -0.0209,2.16792 -8.65e-4,2.64735 l 0.03643,0.87169 h 0.604671 c 1.093965,0 1.558572,0.48819 1.204242,1.26538 -0.146685,0.32174 -0.22416,0.35183 -0.996814,0.38721 l -0.837767,0.0384 0.03801,3.51296 c 0.03586,3.31454 0.05306,3.54214 0.304456,4.02952 0.146545,0.28411 0.451514,0.69865 0.677708,0.9212 0.432064,0.42511 11.793523,7.61575 12.856453,8.13682 0.71725,0.35162 1.52185,0.39102 2.27764,0.11155 z M 67.258994,148.53004 c -0.222439,-0.37329 -0.187114,-0.96234 0.07248,-1.20856 0.202258,-0.19183 0.763141,-0.21372 5.476292,-0.21372 h 5.250951 l 0.19182,0.28701 c 0.1055,0.15786 0.19181,0.40644 0.19181,0.55239 0,0.14596 -0.0863,0.39454 -0.19181,0.5524 l -0.19182,0.28701 h -5.323428 c -5.177863,0 -5.327612,-0.007 -5.476292,-0.25653 z m 0.09358,-6.97525 c -0.136911,-0.14349 -0.24644,-0.43046 -0.24644,-0.6457 0,-0.21523 0.109529,-0.5022 0.24644,-0.64569 0.238135,-0.24957 0.410732,-0.25828 5.12172,-0.25828 4.841343,0 5.244893,0.0322 5.504093,0.43904 0.17279,0.27119 0.093,0.85373 -0.15214,1.11063 -0.23832,0.24977 -0.41073,0.25828 -5.236834,0.25828 -4.826107,0 -4.998513,-0.008 -5.236839,-0.25828 z m 23.565773,13.27512 0.46208,-0.14384 V 141.8406 128.99513 l -0.95496,0.0621 c -2.95791,0.19245 -5.77088,2.90864 -7.12529,6.88017 -0.78546,2.30319 -1.04202,4.05827 -1.04766,7.16702 -0.008,4.27889 0.93152,7.40606 2.92324,9.73235 1.68092,1.96329 3.64666,2.64555 5.74259,1.99311 z m 5.6892,-0.11585 c 0.57698,-0.16789 1.1803,-0.75925 1.1803,-1.1569 0,-0.15712 -0.13862,-0.42033 -0.30805,-0.58489 -0.18873,-0.18331 -0.30732,-0.43915 -0.30616,-0.6605 0.002,-0.43551 0.0953,-0.59712 0.45946,-0.79809 0.23203,-0.12805 0.39061,-0.097 0.98576,0.19302 1.425433,0.69464 3.048293,0.353 4.264463,-0.89774 0.79307,-0.8156 1.22208,-1.71156 1.28988,-2.6938 0.0655,-0.94933 -0.005,-1.21857 -0.5312,-2.03862 -0.23786,-0.37045 -0.43248,-0.73202 -0.43248,-0.8035 0,-0.0715 0.21812,-0.41707 0.48472,-0.76798 0.67735,-0.89159 1.00675,-1.66626 1.08294,-2.54683 0.10279,-1.1881 -0.18286,-1.89737 -1.14083,-2.83263 l -0.79315,-0.77436 0.2456,-0.58188 c 0.8605,-2.03877 -0.12993,-4.28018 -2.07111,-4.68706 -0.32545,-0.0682 -0.37784,-0.0321 -0.50396,0.34702 -0.43941,1.32106 -1.484623,2.34665 -2.653363,2.60357 -0.61296,0.13475 -0.7099,0.12147 -1.25344,-0.17168 -0.42645,-0.23 -0.66794,-0.47398 -0.87467,-0.8837 -0.64912,-1.28646 -0.0864,-2.69135 0.92942,-2.32024 0.42212,0.15422 0.55887,0.4485 0.43968,0.94617 -0.19052,0.79557 0.61447,0.97266 1.24358,0.27357 0.71113,-0.79024 0.83656,-2.08224 0.30715,-3.16388 -0.88062,-1.79925 -3.72484,-2.17346 -5.20773,-0.68519 l -0.33886,0.34009 v 11.52386 11.52386 l 0.33382,0.41578 c 0.68406,0.85201 2.00683,1.22048 3.16823,0.88253 z m 2.31539,-4.53925 c -0.07,-0.0888 -0.16726,-0.39387 -0.21613,-0.67798 -0.12216,-0.71017 -0.25134,-0.93399 -0.67005,-1.16091 -0.48744,-0.26418 -0.84753,-0.24461 -1.34474,0.0731 -0.4995,0.31915 -0.91161,0.24984 -1.19328,-0.20069 -0.31596,-0.50538 -0.0529,-1.14371 0.61,-1.48002 1.27634,-0.64754 3.06166,-0.0118 3.911723,1.39303 0.43863,0.72487 0.48508,1.56205 0.10857,1.95665 -0.278893,0.29228 -1.005953,0.35067 -1.206093,0.0969 z m 0.33978,-4.9442 c -1.23419,-0.39874 -2.06205,-1.63644 -2.18716,-3.26991 l -0.0629,-0.82099 -0.78118,-0.36733 c -1.12896,-0.53086 -1.57303,-1.36172 -1.03126,-1.92951 0.33657,-0.35274 0.60818,-0.32507 1.24446,0.12679 0.7174,0.50947 1.12176,0.49796 1.73179,-0.0493 0.58508,-0.52486 0.85015,-0.61397 1.23362,-0.4147 0.56676,0.29451 0.39869,1.05724 -0.45848,2.08057 -0.28779,0.34358 -0.31881,0.47164 -0.27409,1.1317 0.0535,0.79021 0.28156,1.23089 0.87867,1.69811 0.3564,0.27887 0.950573,0.32438 1.883123,0.14423 0.42417,-0.0819 0.55084,-0.055 0.75721,0.16133 0.19308,0.20236 0.22981,0.35543 0.16629,0.69297 -0.16365,0.86961 -1.69036,1.27148 -3.100113,0.81602 z"
           id="path1"
           sodipodi:nodetypes="scscsssscscssssscccccscscssccssscssssssssccssssssscsscccccccccccccccccccssccccsccssssccscsssscsssssssscccsssscccsssscccccccccscsscssscccsssscsccssssscscsscsssssscssccsssssssscsscccccccsccccccccccccccsscccsssccccssscccccccssccccccssssscccsssscsscccccssssssscccsccccccccccccccccccsssscccssscccssscccssscssssssssssscsscsssssscssssssssssssscssssssssssscsssscccssscsscssscsssssssscssscsssssssssssscccsscssssscsssscsssscssssssssssscccssssssscsssssscsssssscssssss" /><path
           style="fill:#065066;fill-opacity:1;fill-rule:evenodd;stroke-width:0.832504;stroke-opacity:0.49"
           d="m 68.251241,133.16979 9.650723,8e-4 0.636188,-0.0183 c 0,0 0.457243,0.21563 0.553271,0.40043 0.240636,0.46306 0.251011,1.24695 -0.855738,1.29699 -1.548391,0.07 -10.104575,0.035 -10.104575,0.035 0,0 -1.558984,-0.37635 -0.514623,-1.48192 0.158823,-0.16813 0.634754,-0.23298 0.634754,-0.233 z"
           id="path4"
           sodipodi:nodetypes="cccsscscc" /></g></g></g></svg>
