<svg width="31" height="30" viewBox="0 0 31 30" fill="none" xmlns="http://www.w3.org/2000/svg">
<path d="M14.5345 25H1.65955C0.909546 25 0.409546 24.5 0.409546 23.75V1.25C0.409546 0.5 0.909546 0 1.65955 0H10.4095C11.1595 0 11.6595 0.5 11.6595 1.25V2.5H25.4095C26.1595 2.5 26.6595 3 26.6595 3.75V8.75C26.6595 9.5 26.1595 10 25.4095 10C24.6595 10 24.1595 9.5 24.1595 8.75V5H10.4095C9.65955 5 9.15955 4.5 9.15955 3.75V2.5H2.90955V22.5H14.5345C15.2845 22.5 15.7845 23 15.7845 23.75C15.7845 24.5 15.2845 25 14.5345 25Z" fill="#1B1725"/>
<path d="M14.1595 25H1.65955C1.28455 25 0.909546 24.875 0.659546 24.5C0.409546 24.25 0.409546 23.875 0.409546 23.5L4.15955 8.5C4.28455 7.875 4.78455 7.5 5.40955 7.5H29.1595C29.5345 7.5 29.9095 7.625 30.1595 8C30.4095 8.25 30.4095 8.75 30.4095 9.125L28.2845 16.5C28.1595 17.125 27.4095 17.5 26.7845 17.375C26.1595 17.25 25.7845 16.5 25.9095 15.875L27.5345 10H6.40955L3.28455 22.5H14.1595C14.9095 22.5 15.4095 23 15.4095 23.75C15.4095 24.5 14.9095 25 14.1595 25Z" fill="#1B1725"/>
<path d="M25.4095 22.5H17.9095C17.1595 22.5 16.6595 22 16.6595 21.25C16.6595 20.5 17.1595 20 17.9095 20H25.4095C26.1595 20 26.6595 20.5 26.6595 21.25C26.6595 22 26.1595 22.5 25.4095 22.5Z" fill="#1B1725"/>
<path d="M21.6595 26.25C20.9095 26.25 20.4095 25.75 20.4095 25V17.5C20.4095 16.75 20.9095 16.25 21.6595 16.25C22.4095 16.25 22.9095 16.75 22.9095 17.5V25C22.9095 25.75 22.4095 26.25 21.6595 26.25Z" fill="#1B1725"/>
<path d="M21.6595 30C16.7845 30 12.9095 26.125 12.9095 21.25C12.9095 16.375 16.7845 12.5 21.6595 12.5C26.5345 12.5 30.4095 16.375 30.4095 21.25C30.4095 26.125 26.5345 30 21.6595 30ZM21.6595 15C18.1595 15 15.4095 17.75 15.4095 21.25C15.4095 24.75 18.1595 27.5 21.6595 27.5C25.1595 27.5 27.9095 24.75 27.9095 21.25C27.9095 17.75 25.1595 15 21.6595 15Z" fill="#1B1725"/>
</svg>
