<svg width="33" height="34" viewBox="0 0 33 34" fill="none" xmlns="http://www.w3.org/2000/svg">
<path d="M11.1126 9.50912H27.5346C29.3486 9.50912 30.8191 10.9796 30.8191 12.7935V29.2156C30.8191 31.0295 29.3486 32.5 27.5346 32.5H11.1126C9.29866 32.5 7.82818 31.0295 7.82818 29.2156V12.7935C7.82818 10.9796 9.29866 9.50912 11.1126 9.50912Z" stroke="#1B1725" stroke-width="3"/>
<path d="M24.5814 6.24415V4.78441C24.5814 2.97047 23.1109 1.5 21.297 1.5H4.8749C3.06095 1.5 1.59048 2.97047 1.59048 4.78441V21.2065C1.59048 23.0204 3.06095 24.4909 4.8749 24.4909H6.69957" stroke="#1B1725" stroke-width="3"/>
<path d="M14.6578 21.266H22.6864M18.6721 17.2517V25.6452" stroke="#1B1725" stroke-width="3" stroke-linecap="round"/>
</svg>
