<svg width="13" height="9" viewBox="0 0 13 9" fill="none" xmlns="http://www.w3.org/2000/svg">
<path fill-rule="evenodd" clip-rule="evenodd" d="M0.189924 0.766525C0.0679858 0.910191 0 1.10075 0 1.29888C0 1.49701 0.0679858 1.68757 0.189924 1.83124L5.5615 8.05879C5.6799 8.19819 5.82241 8.30919 5.98036 8.38504C6.1383 8.46089 6.30839 8.5 6.48027 8.5C6.65215 8.5 6.82223 8.46089 6.98018 8.38504C7.13813 8.30919 7.28063 8.19819 7.39904 8.05879L12.8103 1.78615C13.0605 1.49524 13.0638 1.02398 12.8168 0.728707C12.7579 0.657221 12.6866 0.600032 12.6071 0.560692C12.5277 0.521352 12.4419 0.5007 12.3551 0.500018C12.2682 0.499335 12.1821 0.518638 12.1022 0.556727C12.0223 0.594817 11.9503 0.650879 11.8905 0.721434L6.93949 6.46172C6.88028 6.53148 6.80901 6.58702 6.73001 6.62498C6.651 6.66294 6.56592 6.68252 6.47994 6.68252C6.39396 6.68252 6.30888 6.66294 6.22988 6.62498C6.15088 6.58702 6.0796 6.53148 6.0204 6.46172L1.10837 0.767251C1.04922 0.697515 0.978001 0.641979 0.899051 0.604029C0.820102 0.566079 0.735074 0.546508 0.649147 0.546508C0.563219 0.546508 0.478191 0.566079 0.399242 0.604029C0.320292 0.641979 0.249074 0.696787 0.189924 0.766525Z" fill="black"/>
</svg>
