<svg width="48" height="45" viewBox="0 0 48 45" fill="none" xmlns="http://www.w3.org/2000/svg">
<mask id="path-1-outside-1_208_354" maskUnits="userSpaceOnUse" x="-1" y="-0.5" width="49" height="46" fill="black">
<rect fill="white" x="-1" y="-0.5" width="49" height="46"/>
<path d="M4.49332 0.5L4.29931 1.33381C4.02334 2.52111 3.66835 3.18939 3.00641 3.7681C2.4393 4.2639 1.72757 4.58304 0.56198 4.86404L0 4.9998L0.823166 5.19629C2.78131 5.66432 3.74357 6.59714 4.39657 8.65938L4.61464 9.34706L4.7906 8.59915C5.22118 6.7702 6.06288 5.89836 7.97498 5.30044L8.93249 5.00129L8.45323 4.87638C6.26242 4.30661 5.22642 3.31484 4.69635 1.2795L4.49332 0.5ZM4.56099 3.80216L5.86392 5.03486L4.50184 6.21966L3.995 5.71611C3.71629 5.43907 3.41244 5.18834 3.31973 5.15926C3.20045 5.12186 3.35741 4.91576 3.85614 4.4543L4.56099 3.80216ZM30.8396 16.3848C30.4593 16.374 30.0527 16.5395 29.7247 16.9185C29.5295 17.144 29.4454 17.373 29.4454 17.6782C29.4454 18.268 29.5739 18.4628 30.1207 18.7026C30.5763 18.9023 30.5836 18.9139 30.5158 19.3518C30.4398 19.8425 30.1719 20.1182 28.8835 21.0337C28.4256 21.3591 28.0475 21.7364 27.8703 22.0442C27.5915 22.5283 27.5867 22.5762 27.552 25.3736C27.5241 27.6219 27.4831 28.2588 27.3549 28.4368C27.1381 28.7378 27.1501 29.2611 27.3795 29.5076C27.6473 29.7952 28.2609 29.7712 28.4819 29.4647C28.7043 29.1559 28.7078 28.6804 28.4884 28.5035C28.3464 28.3889 28.3191 27.9292 28.321 25.6155C28.3232 22.388 28.3293 22.3676 29.5597 21.4405C30.9036 20.4279 31.103 20.1915 31.191 19.5068C31.2556 19.0045 31.3385 18.8319 31.6527 18.5437C31.9694 18.2532 32.0356 18.1136 32.0352 17.736C32.0345 16.9107 31.4735 16.4028 30.8396 16.3848ZM30.8025 17.2389C30.9759 17.2346 31.0632 17.3023 31.1514 17.4907C31.2613 17.7251 31.2495 17.8073 31.0787 17.9907C30.7979 18.2925 30.4802 18.2661 30.3217 17.9281C30.1529 17.5677 30.3146 17.2922 30.7228 17.2448C30.7513 17.2414 30.7777 17.2397 30.8025 17.2389ZM30.6762 23.3564C29.4739 23.3564 29.0358 24.9421 30.0736 25.5375L30.4591 25.7581V30.4332L30.1227 30.6746C29.7013 30.9775 29.4075 31.5176 29.4901 31.8372C29.5756 32.1684 29.9866 32.6609 30.2771 32.7801C30.6663 32.9398 31.1694 32.7975 31.5134 32.4301C31.7935 32.1308 31.8285 32.0219 31.7796 31.6002C31.7423 31.2782 31.6245 31.014 31.4292 30.8158L31.1344 30.5171V25.7517L31.4688 25.4782C32.3063 24.793 31.7695 23.3564 30.6762 23.3564ZM30.7163 24.0589C31.074 24.0686 31.2847 24.5088 30.9574 24.8271C30.7523 25.0265 30.6976 25.0319 30.4305 24.8809C30.162 24.7288 30.1795 24.2686 30.4591 24.1231C30.5363 24.0829 30.6111 24.063 30.6812 24.0595C30.693 24.0589 30.7047 24.0586 30.7163 24.0589ZM30.7318 31.2685C30.8605 31.271 30.9732 31.3444 31.0657 31.4872C31.1558 31.6263 31.1559 31.7311 31.0662 31.8703C30.8606 32.1892 30.4805 32.1733 30.3237 31.8386C30.2042 31.5836 30.2149 31.5251 30.405 31.3899C30.522 31.3066 30.6317 31.2663 30.7318 31.2685Z"/>
<path d="M19.5314 44.3796C18.8605 44.1272 18.2351 43.7925 15.7692 42.3661C8.68558 38.2685 7.16613 37.3541 6.65771 36.8825C6.33434 36.5826 5.96414 36.0809 5.75682 35.6616L5.40488 34.9498L5.33589 28.6535H4.5714C3.69596 28.6535 3.43418 28.4828 3.43418 27.9119C3.43418 27.4219 3.77402 27.23 4.64165 27.23H5.34857V22.7404H4.61659C3.77256 22.7404 3.43418 22.5228 3.43418 21.9801C3.43418 21.5105 3.78661 21.3169 4.64165 21.3169H5.34857V16.8273H4.57774C3.69965 16.8273 3.43418 16.6577 3.43418 16.0965C3.43418 15.5806 3.7288 15.4038 4.58852 15.4038H5.33098L5.36793 12.7484C5.40463 10.111 5.40696 10.0889 5.71185 9.49071C6.05618 8.81515 6.5229 8.29338 7.13324 7.90163C8.03264 7.32435 8.03485 7.32424 19.9963 7.26101C31.8759 7.19817 31.9682 7.20156 33.0437 7.73508C34.068 8.24321 34.8234 9.28031 34.935 10.3316C34.9867 10.8188 35.0305 10.9132 35.1788 10.8573C37.1986 10.0952 39.7997 10.5884 40.8525 11.9331C41.2033 12.3812 41.6094 13.1553 41.6094 13.376C41.6094 13.561 41.7804 13.6419 42.7434 13.9124C44.71 14.4648 45.9048 16.3008 45.7348 18.5092C45.6687 19.3676 45.6696 19.3711 46.058 19.832C46.6849 20.5759 46.9368 21.2463 46.9922 22.318C47.0475 23.3881 46.8091 24.2923 46.2428 25.1602L45.9283 25.6422L46.1519 26.135C46.4271 26.7412 46.522 27.9814 46.3521 28.7518C46.0257 30.2316 44.8816 31.6551 43.4823 32.3223C42.6853 32.7024 41.8064 32.924 41.0962 32.924C40.7802 32.924 40.716 32.97 40.6551 33.2397C40.5379 33.7588 39.862 34.4173 39.0451 34.8083C38.341 35.1454 38.2189 35.1684 37.1636 35.1624C36.2648 35.1573 35.9284 35.1088 35.5106 34.9242C35.2221 34.7967 34.956 34.7216 34.9194 34.7573C34.8827 34.7929 34.8527 35.0346 34.8527 35.2944C34.8527 36.2757 34.1691 37.4079 33.187 38.0528C32.8335 38.285 31.5054 39.0677 30.2357 39.7923C28.966 40.5168 26.787 41.7629 25.3934 42.5613C23.9998 43.3597 22.6316 44.1103 22.3529 44.2292C21.6976 44.5089 20.1013 44.5939 19.5314 44.3796ZM21.6754 42.8345C21.9378 42.7445 22.4383 42.5053 22.7876 42.3029C25.4993 40.7319 30.2694 37.9866 31.1929 37.4655C32.4498 36.7563 33.0756 36.1978 33.2764 35.6061C33.3505 35.3876 33.3932 35.1914 33.3712 35.17C33.3492 35.1486 33.0021 35.2063 32.5998 35.2982C30.6478 35.7443 28.3243 35.0013 26.6812 33.4054C24.4839 31.2712 23.3664 28.072 23.3664 23.9161C23.3664 19.706 24.4193 16.2357 26.4912 13.6165C27.8989 11.8371 30.5341 10.4762 32.572 10.4762C33.077 10.4762 33.3888 10.4315 33.3888 10.3591C33.3888 10.0643 32.6826 9.27689 32.2252 9.06157C31.7336 8.83015 31.7147 8.82979 20.3706 8.83282C12.8279 8.83452 8.86545 8.87429 8.58307 8.95025C8.0298 9.09905 7.3932 9.64919 7.13515 10.2015C6.9572 10.5824 6.92975 10.9555 6.9276 13.0221L6.92514 15.4038H7.56539C8.06777 15.4038 8.47778 15.415 8.68229 15.6018C9.02353 15.9135 9.08536 16.2171 8.72491 16.5676C8.46047 16.8247 8.44674 16.7857 7.83761 16.8016L6.92514 16.8254V21.3169H7.6008C8.36318 21.3169 8.72691 21.5468 8.72691 22.0287C8.72691 22.5091 8.36286 22.7404 7.60674 22.7404H6.93701L6.90292 24.2461C6.88417 25.0742 6.88382 26.0843 6.90213 26.4909L6.93542 27.23H7.48804C8.48782 27.23 8.91242 27.6439 8.5886 28.303C8.45454 28.5758 8.38374 28.6013 7.67761 28.6313L6.91196 28.6638L6.9467 31.6426C6.97947 34.4531 6.9952 34.6461 7.22495 35.0594C7.35888 35.3003 7.63759 35.6518 7.84431 35.8405C8.23917 36.201 18.6225 42.2982 19.5939 42.74C20.2494 43.0382 20.9847 43.0715 21.6754 42.8345ZM11.2314 28.436C11.0282 28.1194 11.0604 27.62 11.2977 27.4112C11.4825 27.2485 11.9951 27.23 16.3025 27.23H21.1014L21.2767 27.4733C21.3731 27.6072 21.452 27.818 21.452 27.9417C21.452 28.0655 21.3731 28.2763 21.2767 28.4101L21.1014 28.6535H16.2363C11.5042 28.6535 11.3673 28.6476 11.2314 28.436ZM11.317 22.5214C11.1918 22.3997 11.0917 22.1564 11.0917 21.9739C11.0917 21.7914 11.1918 21.5481 11.317 21.4264C11.5346 21.2148 11.6923 21.2074 15.9977 21.2074C20.4223 21.2074 20.7911 21.2347 21.028 21.5797C21.1859 21.8096 21.113 22.3036 20.8889 22.5214C20.6711 22.7332 20.5136 22.7404 16.1029 22.7404C11.6923 22.7404 11.5348 22.7336 11.317 22.5214ZM32.8539 33.7779L33.2762 33.6559V11.8716L32.4034 11.9243C29.7002 12.0875 27.1294 14.3906 25.8916 17.7582C25.1737 19.7112 24.9393 21.1994 24.9341 23.8354C24.9268 27.4636 25.7854 30.1153 27.6057 32.0878C29.1419 33.7526 30.9384 34.3311 32.8539 33.7779ZM38.0533 33.6796C38.5806 33.5373 39.132 33.0358 39.132 32.6986C39.132 32.5654 39.0053 32.3422 38.8504 32.2027C38.6779 32.0473 38.5696 31.8303 38.5706 31.6426C38.5724 31.2733 38.6577 31.1363 38.9905 30.9659C39.2026 30.8573 39.3475 30.8837 39.8914 31.1296C41.1941 31.7186 42.6773 31.4289 43.7887 30.3683C44.5135 29.6768 44.9056 28.9171 44.9676 28.0842C45.0274 27.2792 44.963 27.0509 44.4821 26.3556C44.2647 26.0414 44.0868 25.7349 44.0868 25.6742C44.0868 25.6136 44.2862 25.3206 44.5298 25.023C45.1489 24.267 45.4499 23.6102 45.5196 22.8635C45.6135 21.8561 45.3524 21.2546 44.4769 20.4616L43.7521 19.805L43.9765 19.3116C44.7629 17.5829 43.8578 15.6823 42.0837 15.3373C41.7863 15.2794 41.7384 15.31 41.6232 15.6315C41.2216 16.7517 40.2663 17.6213 39.1982 17.8392C38.638 17.9534 38.5494 17.9422 38.0527 17.6936C37.663 17.4986 37.4423 17.2917 37.2533 16.9443C36.6601 15.8534 37.1744 14.6622 38.1027 14.9769C38.4885 15.1076 38.6135 15.3572 38.5046 15.7792C38.3304 16.4538 39.0661 16.6039 39.6411 16.0111C40.291 15.3411 40.4056 14.2455 39.9218 13.3284C39.117 11.8027 36.5176 11.4854 35.1624 12.7474L34.8527 13.0357V32.5788L35.1578 32.9313C35.783 33.6537 36.9919 33.9662 38.0533 33.6796ZM40.1693 29.8306C40.1053 29.7553 40.0165 29.4967 39.9718 29.2557C39.8602 28.6536 39.7421 28.4638 39.3594 28.2714C38.914 28.0474 38.5849 28.064 38.1305 28.3334C37.674 28.604 37.2973 28.5452 37.0399 28.1632C36.7512 27.7346 36.9916 27.1934 37.5974 26.9082C38.7639 26.3591 40.3955 26.8982 41.1724 28.0894C41.5732 28.7041 41.6157 29.4139 41.2716 29.7485C41.0167 29.9964 40.3522 30.0458 40.1693 29.8306ZM40.4799 25.6383C39.3519 25.3002 38.5953 24.2507 38.481 22.8656L38.4235 22.1694L37.7096 21.858C36.6778 21.4078 36.272 20.7033 36.7671 20.2219C37.0747 19.9228 37.3229 19.9462 37.9044 20.3294C38.5601 20.7614 38.9296 20.7516 39.4871 20.2876C40.0218 19.8425 40.2641 19.767 40.6145 19.9359C41.1325 20.1857 40.9789 20.8324 40.1955 21.7001C39.9325 21.9915 39.9042 22.1 39.945 22.6597C39.9939 23.3298 40.2024 23.7035 40.7481 24.0996C41.0738 24.3361 41.6168 24.3747 42.469 24.2219C42.8567 24.1525 42.9725 24.1753 43.1611 24.3587C43.3375 24.5303 43.3711 24.6601 43.313 24.9463C43.1635 25.6837 41.7682 26.0245 40.4799 25.6383Z"/>
<path fill-rule="evenodd" clip-rule="evenodd" d="M12.1383 15.4115L20.9581 15.4121L21.5395 15.3966C21.5395 15.3966 21.9574 15.5795 22.0452 15.7362C22.2651 16.1288 22.2746 16.7935 21.2631 16.8359C19.848 16.8953 12.0285 16.8656 12.0285 16.8656C12.0285 16.8656 10.6037 16.5465 11.5582 15.609C11.7033 15.4665 12.1383 15.4115 12.1383 15.4115Z"/>
</mask>
<path d="M4.49332 0.5L4.29931 1.33381C4.02334 2.52111 3.66835 3.18939 3.00641 3.7681C2.4393 4.2639 1.72757 4.58304 0.56198 4.86404L0 4.9998L0.823166 5.19629C2.78131 5.66432 3.74357 6.59714 4.39657 8.65938L4.61464 9.34706L4.7906 8.59915C5.22118 6.7702 6.06288 5.89836 7.97498 5.30044L8.93249 5.00129L8.45323 4.87638C6.26242 4.30661 5.22642 3.31484 4.69635 1.2795L4.49332 0.5ZM4.56099 3.80216L5.86392 5.03486L4.50184 6.21966L3.995 5.71611C3.71629 5.43907 3.41244 5.18834 3.31973 5.15926C3.20045 5.12186 3.35741 4.91576 3.85614 4.4543L4.56099 3.80216ZM30.8396 16.3848C30.4593 16.374 30.0527 16.5395 29.7247 16.9185C29.5295 17.144 29.4454 17.373 29.4454 17.6782C29.4454 18.268 29.5739 18.4628 30.1207 18.7026C30.5763 18.9023 30.5836 18.9139 30.5158 19.3518C30.4398 19.8425 30.1719 20.1182 28.8835 21.0337C28.4256 21.3591 28.0475 21.7364 27.8703 22.0442C27.5915 22.5283 27.5867 22.5762 27.552 25.3736C27.5241 27.6219 27.4831 28.2588 27.3549 28.4368C27.1381 28.7378 27.1501 29.2611 27.3795 29.5076C27.6473 29.7952 28.2609 29.7712 28.4819 29.4647C28.7043 29.1559 28.7078 28.6804 28.4884 28.5035C28.3464 28.3889 28.3191 27.9292 28.321 25.6155C28.3232 22.388 28.3293 22.3676 29.5597 21.4405C30.9036 20.4279 31.103 20.1915 31.191 19.5068C31.2556 19.0045 31.3385 18.8319 31.6527 18.5437C31.9694 18.2532 32.0356 18.1136 32.0352 17.736C32.0345 16.9107 31.4735 16.4028 30.8396 16.3848ZM30.8025 17.2389C30.9759 17.2346 31.0632 17.3023 31.1514 17.4907C31.2613 17.7251 31.2495 17.8073 31.0787 17.9907C30.7979 18.2925 30.4802 18.2661 30.3217 17.9281C30.1529 17.5677 30.3146 17.2922 30.7228 17.2448C30.7513 17.2414 30.7777 17.2397 30.8025 17.2389ZM30.6762 23.3564C29.4739 23.3564 29.0358 24.9421 30.0736 25.5375L30.4591 25.7581V30.4332L30.1227 30.6746C29.7013 30.9775 29.4075 31.5176 29.4901 31.8372C29.5756 32.1684 29.9866 32.6609 30.2771 32.7801C30.6663 32.9398 31.1694 32.7975 31.5134 32.4301C31.7935 32.1308 31.8285 32.0219 31.7796 31.6002C31.7423 31.2782 31.6245 31.014 31.4292 30.8158L31.1344 30.5171V25.7517L31.4688 25.4782C32.3063 24.793 31.7695 23.3564 30.6762 23.3564ZM30.7163 24.0589C31.074 24.0686 31.2847 24.5088 30.9574 24.8271C30.7523 25.0265 30.6976 25.0319 30.4305 24.8809C30.162 24.7288 30.1795 24.2686 30.4591 24.1231C30.5363 24.0829 30.6111 24.063 30.6812 24.0595C30.693 24.0589 30.7047 24.0586 30.7163 24.0589ZM30.7318 31.2685C30.8605 31.271 30.9732 31.3444 31.0657 31.4872C31.1558 31.6263 31.1559 31.7311 31.0662 31.8703C30.8606 32.1892 30.4805 32.1733 30.3237 31.8386C30.2042 31.5836 30.2149 31.5251 30.405 31.3899C30.522 31.3066 30.6317 31.2663 30.7318 31.2685Z" fill="#1B1725"/>
<path d="M19.5314 44.3796C18.8605 44.1272 18.2351 43.7925 15.7692 42.3661C8.68558 38.2685 7.16613 37.3541 6.65771 36.8825C6.33434 36.5826 5.96414 36.0809 5.75682 35.6616L5.40488 34.9498L5.33589 28.6535H4.5714C3.69596 28.6535 3.43418 28.4828 3.43418 27.9119C3.43418 27.4219 3.77402 27.23 4.64165 27.23H5.34857V22.7404H4.61659C3.77256 22.7404 3.43418 22.5228 3.43418 21.9801C3.43418 21.5105 3.78661 21.3169 4.64165 21.3169H5.34857V16.8273H4.57774C3.69965 16.8273 3.43418 16.6577 3.43418 16.0965C3.43418 15.5806 3.7288 15.4038 4.58852 15.4038H5.33098L5.36793 12.7484C5.40463 10.111 5.40696 10.0889 5.71185 9.49071C6.05618 8.81515 6.5229 8.29338 7.13324 7.90163C8.03264 7.32435 8.03485 7.32424 19.9963 7.26101C31.8759 7.19817 31.9682 7.20156 33.0437 7.73508C34.068 8.24321 34.8234 9.28031 34.935 10.3316C34.9867 10.8188 35.0305 10.9132 35.1788 10.8573C37.1986 10.0952 39.7997 10.5884 40.8525 11.9331C41.2033 12.3812 41.6094 13.1553 41.6094 13.376C41.6094 13.561 41.7804 13.6419 42.7434 13.9124C44.71 14.4648 45.9048 16.3008 45.7348 18.5092C45.6687 19.3676 45.6696 19.3711 46.058 19.832C46.6849 20.5759 46.9368 21.2463 46.9922 22.318C47.0475 23.3881 46.8091 24.2923 46.2428 25.1602L45.9283 25.6422L46.1519 26.135C46.4271 26.7412 46.522 27.9814 46.3521 28.7518C46.0257 30.2316 44.8816 31.6551 43.4823 32.3223C42.6853 32.7024 41.8064 32.924 41.0962 32.924C40.7802 32.924 40.716 32.97 40.6551 33.2397C40.5379 33.7588 39.862 34.4173 39.0451 34.8083C38.341 35.1454 38.2189 35.1684 37.1636 35.1624C36.2648 35.1573 35.9284 35.1088 35.5106 34.9242C35.2221 34.7967 34.956 34.7216 34.9194 34.7573C34.8827 34.7929 34.8527 35.0346 34.8527 35.2944C34.8527 36.2757 34.1691 37.4079 33.187 38.0528C32.8335 38.285 31.5054 39.0677 30.2357 39.7923C28.966 40.5168 26.787 41.7629 25.3934 42.5613C23.9998 43.3597 22.6316 44.1103 22.3529 44.2292C21.6976 44.5089 20.1013 44.5939 19.5314 44.3796ZM21.6754 42.8345C21.9378 42.7445 22.4383 42.5053 22.7876 42.3029C25.4993 40.7319 30.2694 37.9866 31.1929 37.4655C32.4498 36.7563 33.0756 36.1978 33.2764 35.6061C33.3505 35.3876 33.3932 35.1914 33.3712 35.17C33.3492 35.1486 33.0021 35.2063 32.5998 35.2982C30.6478 35.7443 28.3243 35.0013 26.6812 33.4054C24.4839 31.2712 23.3664 28.072 23.3664 23.9161C23.3664 19.706 24.4193 16.2357 26.4912 13.6165C27.8989 11.8371 30.5341 10.4762 32.572 10.4762C33.077 10.4762 33.3888 10.4315 33.3888 10.3591C33.3888 10.0643 32.6826 9.27689 32.2252 9.06157C31.7336 8.83015 31.7147 8.82979 20.3706 8.83282C12.8279 8.83452 8.86545 8.87429 8.58307 8.95025C8.0298 9.09905 7.3932 9.64919 7.13515 10.2015C6.9572 10.5824 6.92975 10.9555 6.9276 13.0221L6.92514 15.4038H7.56539C8.06777 15.4038 8.47778 15.415 8.68229 15.6018C9.02353 15.9135 9.08536 16.2171 8.72491 16.5676C8.46047 16.8247 8.44674 16.7857 7.83761 16.8016L6.92514 16.8254V21.3169H7.6008C8.36318 21.3169 8.72691 21.5468 8.72691 22.0287C8.72691 22.5091 8.36286 22.7404 7.60674 22.7404H6.93701L6.90292 24.2461C6.88417 25.0742 6.88382 26.0843 6.90213 26.4909L6.93542 27.23H7.48804C8.48782 27.23 8.91242 27.6439 8.5886 28.303C8.45454 28.5758 8.38374 28.6013 7.67761 28.6313L6.91196 28.6638L6.9467 31.6426C6.97947 34.4531 6.9952 34.6461 7.22495 35.0594C7.35888 35.3003 7.63759 35.6518 7.84431 35.8405C8.23917 36.201 18.6225 42.2982 19.5939 42.74C20.2494 43.0382 20.9847 43.0715 21.6754 42.8345ZM11.2314 28.436C11.0282 28.1194 11.0604 27.62 11.2977 27.4112C11.4825 27.2485 11.9951 27.23 16.3025 27.23H21.1014L21.2767 27.4733C21.3731 27.6072 21.452 27.818 21.452 27.9417C21.452 28.0655 21.3731 28.2763 21.2767 28.4101L21.1014 28.6535H16.2363C11.5042 28.6535 11.3673 28.6476 11.2314 28.436ZM11.317 22.5214C11.1918 22.3997 11.0917 22.1564 11.0917 21.9739C11.0917 21.7914 11.1918 21.5481 11.317 21.4264C11.5346 21.2148 11.6923 21.2074 15.9977 21.2074C20.4223 21.2074 20.7911 21.2347 21.028 21.5797C21.1859 21.8096 21.113 22.3036 20.8889 22.5214C20.6711 22.7332 20.5136 22.7404 16.1029 22.7404C11.6923 22.7404 11.5348 22.7336 11.317 22.5214ZM32.8539 33.7779L33.2762 33.6559V11.8716L32.4034 11.9243C29.7002 12.0875 27.1294 14.3906 25.8916 17.7582C25.1737 19.7112 24.9393 21.1994 24.9341 23.8354C24.9268 27.4636 25.7854 30.1153 27.6057 32.0878C29.1419 33.7526 30.9384 34.3311 32.8539 33.7779ZM38.0533 33.6796C38.5806 33.5373 39.132 33.0358 39.132 32.6986C39.132 32.5654 39.0053 32.3422 38.8504 32.2027C38.6779 32.0473 38.5696 31.8303 38.5706 31.6426C38.5724 31.2733 38.6577 31.1363 38.9905 30.9659C39.2026 30.8573 39.3475 30.8837 39.8914 31.1296C41.1941 31.7186 42.6773 31.4289 43.7887 30.3683C44.5135 29.6768 44.9056 28.9171 44.9676 28.0842C45.0274 27.2792 44.963 27.0509 44.4821 26.3556C44.2647 26.0414 44.0868 25.7349 44.0868 25.6742C44.0868 25.6136 44.2862 25.3206 44.5298 25.023C45.1489 24.267 45.4499 23.6102 45.5196 22.8635C45.6135 21.8561 45.3524 21.2546 44.4769 20.4616L43.7521 19.805L43.9765 19.3116C44.7629 17.5829 43.8578 15.6823 42.0837 15.3373C41.7863 15.2794 41.7384 15.31 41.6232 15.6315C41.2216 16.7517 40.2663 17.6213 39.1982 17.8392C38.638 17.9534 38.5494 17.9422 38.0527 17.6936C37.663 17.4986 37.4423 17.2917 37.2533 16.9443C36.6601 15.8534 37.1744 14.6622 38.1027 14.9769C38.4885 15.1076 38.6135 15.3572 38.5046 15.7792C38.3304 16.4538 39.0661 16.6039 39.6411 16.0111C40.291 15.3411 40.4056 14.2455 39.9218 13.3284C39.117 11.8027 36.5176 11.4854 35.1624 12.7474L34.8527 13.0357V32.5788L35.1578 32.9313C35.783 33.6537 36.9919 33.9662 38.0533 33.6796ZM40.1693 29.8306C40.1053 29.7553 40.0165 29.4967 39.9718 29.2557C39.8602 28.6536 39.7421 28.4638 39.3594 28.2714C38.914 28.0474 38.5849 28.064 38.1305 28.3334C37.674 28.604 37.2973 28.5452 37.0399 28.1632C36.7512 27.7346 36.9916 27.1934 37.5974 26.9082C38.7639 26.3591 40.3955 26.8982 41.1724 28.0894C41.5732 28.7041 41.6157 29.4139 41.2716 29.7485C41.0167 29.9964 40.3522 30.0458 40.1693 29.8306ZM40.4799 25.6383C39.3519 25.3002 38.5953 24.2507 38.481 22.8656L38.4235 22.1694L37.7096 21.858C36.6778 21.4078 36.272 20.7033 36.7671 20.2219C37.0747 19.9228 37.3229 19.9462 37.9044 20.3294C38.5601 20.7614 38.9296 20.7516 39.4871 20.2876C40.0218 19.8425 40.2641 19.767 40.6145 19.9359C41.1325 20.1857 40.9789 20.8324 40.1955 21.7001C39.9325 21.9915 39.9042 22.1 39.945 22.6597C39.9939 23.3298 40.2024 23.7035 40.7481 24.0996C41.0738 24.3361 41.6168 24.3747 42.469 24.2219C42.8567 24.1525 42.9725 24.1753 43.1611 24.3587C43.3375 24.5303 43.3711 24.6601 43.313 24.9463C43.1635 25.6837 41.7682 26.0245 40.4799 25.6383Z" fill="#1B1725"/>
<path fill-rule="evenodd" clip-rule="evenodd" d="M12.1383 15.4115L20.9581 15.4121L21.5395 15.3966C21.5395 15.3966 21.9574 15.5795 22.0452 15.7362C22.2651 16.1288 22.2746 16.7935 21.2631 16.8359C19.848 16.8953 12.0285 16.8656 12.0285 16.8656C12.0285 16.8656 10.6037 16.5465 11.5582 15.609C11.7033 15.4665 12.1383 15.4115 12.1383 15.4115Z" fill="#1B1725"/>
<path d="M4.49332 0.5L4.29931 1.33381C4.02334 2.52111 3.66835 3.18939 3.00641 3.7681C2.4393 4.2639 1.72757 4.58304 0.56198 4.86404L0 4.9998L0.823166 5.19629C2.78131 5.66432 3.74357 6.59714 4.39657 8.65938L4.61464 9.34706L4.7906 8.59915C5.22118 6.7702 6.06288 5.89836 7.97498 5.30044L8.93249 5.00129L8.45323 4.87638C6.26242 4.30661 5.22642 3.31484 4.69635 1.2795L4.49332 0.5ZM4.56099 3.80216L5.86392 5.03486L4.50184 6.21966L3.995 5.71611C3.71629 5.43907 3.41244 5.18834 3.31973 5.15926C3.20045 5.12186 3.35741 4.91576 3.85614 4.4543L4.56099 3.80216ZM30.8396 16.3848C30.4593 16.374 30.0527 16.5395 29.7247 16.9185C29.5295 17.144 29.4454 17.373 29.4454 17.6782C29.4454 18.268 29.5739 18.4628 30.1207 18.7026C30.5763 18.9023 30.5836 18.9139 30.5158 19.3518C30.4398 19.8425 30.1719 20.1182 28.8835 21.0337C28.4256 21.3591 28.0475 21.7364 27.8703 22.0442C27.5915 22.5283 27.5867 22.5762 27.552 25.3736C27.5241 27.6219 27.4831 28.2588 27.3549 28.4368C27.1381 28.7378 27.1501 29.2611 27.3795 29.5076C27.6473 29.7952 28.2609 29.7712 28.4819 29.4647C28.7043 29.1559 28.7078 28.6804 28.4884 28.5035C28.3464 28.3889 28.3191 27.9292 28.321 25.6155C28.3232 22.388 28.3293 22.3676 29.5597 21.4405C30.9036 20.4279 31.103 20.1915 31.191 19.5068C31.2556 19.0045 31.3385 18.8319 31.6527 18.5437C31.9694 18.2532 32.0356 18.1136 32.0352 17.736C32.0345 16.9107 31.4735 16.4028 30.8396 16.3848ZM30.8025 17.2389C30.9759 17.2346 31.0632 17.3023 31.1514 17.4907C31.2613 17.7251 31.2495 17.8073 31.0787 17.9907C30.7979 18.2925 30.4802 18.2661 30.3217 17.9281C30.1529 17.5677 30.3146 17.2922 30.7228 17.2448C30.7513 17.2414 30.7777 17.2397 30.8025 17.2389ZM30.6762 23.3564C29.4739 23.3564 29.0358 24.9421 30.0736 25.5375L30.4591 25.7581V30.4332L30.1227 30.6746C29.7013 30.9775 29.4075 31.5176 29.4901 31.8372C29.5756 32.1684 29.9866 32.6609 30.2771 32.7801C30.6663 32.9398 31.1694 32.7975 31.5134 32.4301C31.7935 32.1308 31.8285 32.0219 31.7796 31.6002C31.7423 31.2782 31.6245 31.014 31.4292 30.8158L31.1344 30.5171V25.7517L31.4688 25.4782C32.3063 24.793 31.7695 23.3564 30.6762 23.3564ZM30.7163 24.0589C31.074 24.0686 31.2847 24.5088 30.9574 24.8271C30.7523 25.0265 30.6976 25.0319 30.4305 24.8809C30.162 24.7288 30.1795 24.2686 30.4591 24.1231C30.5363 24.0829 30.6111 24.063 30.6812 24.0595C30.693 24.0589 30.7047 24.0586 30.7163 24.0589ZM30.7318 31.2685C30.8605 31.271 30.9732 31.3444 31.0657 31.4872C31.1558 31.6263 31.1559 31.7311 31.0662 31.8703C30.8606 32.1892 30.4805 32.1733 30.3237 31.8386C30.2042 31.5836 30.2149 31.5251 30.405 31.3899C30.522 31.3066 30.6317 31.2663 30.7318 31.2685Z" stroke="#1B1725" mask="url(#path-1-outside-1_208_354)"/>
<path d="M19.5314 44.3796C18.8605 44.1272 18.2351 43.7925 15.7692 42.3661C8.68558 38.2685 7.16613 37.3541 6.65771 36.8825C6.33434 36.5826 5.96414 36.0809 5.75682 35.6616L5.40488 34.9498L5.33589 28.6535H4.5714C3.69596 28.6535 3.43418 28.4828 3.43418 27.9119C3.43418 27.4219 3.77402 27.23 4.64165 27.23H5.34857V22.7404H4.61659C3.77256 22.7404 3.43418 22.5228 3.43418 21.9801C3.43418 21.5105 3.78661 21.3169 4.64165 21.3169H5.34857V16.8273H4.57774C3.69965 16.8273 3.43418 16.6577 3.43418 16.0965C3.43418 15.5806 3.7288 15.4038 4.58852 15.4038H5.33098L5.36793 12.7484C5.40463 10.111 5.40696 10.0889 5.71185 9.49071C6.05618 8.81515 6.5229 8.29338 7.13324 7.90163C8.03264 7.32435 8.03485 7.32424 19.9963 7.26101C31.8759 7.19817 31.9682 7.20156 33.0437 7.73508C34.068 8.24321 34.8234 9.28031 34.935 10.3316C34.9867 10.8188 35.0305 10.9132 35.1788 10.8573C37.1986 10.0952 39.7997 10.5884 40.8525 11.9331C41.2033 12.3812 41.6094 13.1553 41.6094 13.376C41.6094 13.561 41.7804 13.6419 42.7434 13.9124C44.71 14.4648 45.9048 16.3008 45.7348 18.5092C45.6687 19.3676 45.6696 19.3711 46.058 19.832C46.6849 20.5759 46.9368 21.2463 46.9922 22.318C47.0475 23.3881 46.8091 24.2923 46.2428 25.1602L45.9283 25.6422L46.1519 26.135C46.4271 26.7412 46.522 27.9814 46.3521 28.7518C46.0257 30.2316 44.8816 31.6551 43.4823 32.3223C42.6853 32.7024 41.8064 32.924 41.0962 32.924C40.7802 32.924 40.716 32.97 40.6551 33.2397C40.5379 33.7588 39.862 34.4173 39.0451 34.8083C38.341 35.1454 38.2189 35.1684 37.1636 35.1624C36.2648 35.1573 35.9284 35.1088 35.5106 34.9242C35.2221 34.7967 34.956 34.7216 34.9194 34.7573C34.8827 34.7929 34.8527 35.0346 34.8527 35.2944C34.8527 36.2757 34.1691 37.4079 33.187 38.0528C32.8335 38.285 31.5054 39.0677 30.2357 39.7923C28.966 40.5168 26.787 41.7629 25.3934 42.5613C23.9998 43.3597 22.6316 44.1103 22.3529 44.2292C21.6976 44.5089 20.1013 44.5939 19.5314 44.3796ZM21.6754 42.8345C21.9378 42.7445 22.4383 42.5053 22.7876 42.3029C25.4993 40.7319 30.2694 37.9866 31.1929 37.4655C32.4498 36.7563 33.0756 36.1978 33.2764 35.6061C33.3505 35.3876 33.3932 35.1914 33.3712 35.17C33.3492 35.1486 33.0021 35.2063 32.5998 35.2982C30.6478 35.7443 28.3243 35.0013 26.6812 33.4054C24.4839 31.2712 23.3664 28.072 23.3664 23.9161C23.3664 19.706 24.4193 16.2357 26.4912 13.6165C27.8989 11.8371 30.5341 10.4762 32.572 10.4762C33.077 10.4762 33.3888 10.4315 33.3888 10.3591C33.3888 10.0643 32.6826 9.27689 32.2252 9.06157C31.7336 8.83015 31.7147 8.82979 20.3706 8.83282C12.8279 8.83452 8.86545 8.87429 8.58307 8.95025C8.0298 9.09905 7.3932 9.64919 7.13515 10.2015C6.9572 10.5824 6.92975 10.9555 6.9276 13.0221L6.92514 15.4038H7.56539C8.06777 15.4038 8.47778 15.415 8.68229 15.6018C9.02353 15.9135 9.08536 16.2171 8.72491 16.5676C8.46047 16.8247 8.44674 16.7857 7.83761 16.8016L6.92514 16.8254V21.3169H7.6008C8.36318 21.3169 8.72691 21.5468 8.72691 22.0287C8.72691 22.5091 8.36286 22.7404 7.60674 22.7404H6.93701L6.90292 24.2461C6.88417 25.0742 6.88382 26.0843 6.90213 26.4909L6.93542 27.23H7.48804C8.48782 27.23 8.91242 27.6439 8.5886 28.303C8.45454 28.5758 8.38374 28.6013 7.67761 28.6313L6.91196 28.6638L6.9467 31.6426C6.97947 34.4531 6.9952 34.6461 7.22495 35.0594C7.35888 35.3003 7.63759 35.6518 7.84431 35.8405C8.23917 36.201 18.6225 42.2982 19.5939 42.74C20.2494 43.0382 20.9847 43.0715 21.6754 42.8345ZM11.2314 28.436C11.0282 28.1194 11.0604 27.62 11.2977 27.4112C11.4825 27.2485 11.9951 27.23 16.3025 27.23H21.1014L21.2767 27.4733C21.3731 27.6072 21.452 27.818 21.452 27.9417C21.452 28.0655 21.3731 28.2763 21.2767 28.4101L21.1014 28.6535H16.2363C11.5042 28.6535 11.3673 28.6476 11.2314 28.436ZM11.317 22.5214C11.1918 22.3997 11.0917 22.1564 11.0917 21.9739C11.0917 21.7914 11.1918 21.5481 11.317 21.4264C11.5346 21.2148 11.6923 21.2074 15.9977 21.2074C20.4223 21.2074 20.7911 21.2347 21.028 21.5797C21.1859 21.8096 21.113 22.3036 20.8889 22.5214C20.6711 22.7332 20.5136 22.7404 16.1029 22.7404C11.6923 22.7404 11.5348 22.7336 11.317 22.5214ZM32.8539 33.7779L33.2762 33.6559V11.8716L32.4034 11.9243C29.7002 12.0875 27.1294 14.3906 25.8916 17.7582C25.1737 19.7112 24.9393 21.1994 24.9341 23.8354C24.9268 27.4636 25.7854 30.1153 27.6057 32.0878C29.1419 33.7526 30.9384 34.3311 32.8539 33.7779ZM38.0533 33.6796C38.5806 33.5373 39.132 33.0358 39.132 32.6986C39.132 32.5654 39.0053 32.3422 38.8504 32.2027C38.6779 32.0473 38.5696 31.8303 38.5706 31.6426C38.5724 31.2733 38.6577 31.1363 38.9905 30.9659C39.2026 30.8573 39.3475 30.8837 39.8914 31.1296C41.1941 31.7186 42.6773 31.4289 43.7887 30.3683C44.5135 29.6768 44.9056 28.9171 44.9676 28.0842C45.0274 27.2792 44.963 27.0509 44.4821 26.3556C44.2647 26.0414 44.0868 25.7349 44.0868 25.6742C44.0868 25.6136 44.2862 25.3206 44.5298 25.023C45.1489 24.267 45.4499 23.6102 45.5196 22.8635C45.6135 21.8561 45.3524 21.2546 44.4769 20.4616L43.7521 19.805L43.9765 19.3116C44.7629 17.5829 43.8578 15.6823 42.0837 15.3373C41.7863 15.2794 41.7384 15.31 41.6232 15.6315C41.2216 16.7517 40.2663 17.6213 39.1982 17.8392C38.638 17.9534 38.5494 17.9422 38.0527 17.6936C37.663 17.4986 37.4423 17.2917 37.2533 16.9443C36.6601 15.8534 37.1744 14.6622 38.1027 14.9769C38.4885 15.1076 38.6135 15.3572 38.5046 15.7792C38.3304 16.4538 39.0661 16.6039 39.6411 16.0111C40.291 15.3411 40.4056 14.2455 39.9218 13.3284C39.117 11.8027 36.5176 11.4854 35.1624 12.7474L34.8527 13.0357V32.5788L35.1578 32.9313C35.783 33.6537 36.9919 33.9662 38.0533 33.6796ZM40.1693 29.8306C40.1053 29.7553 40.0165 29.4967 39.9718 29.2557C39.8602 28.6536 39.7421 28.4638 39.3594 28.2714C38.914 28.0474 38.5849 28.064 38.1305 28.3334C37.674 28.604 37.2973 28.5452 37.0399 28.1632C36.7512 27.7346 36.9916 27.1934 37.5974 26.9082C38.7639 26.3591 40.3955 26.8982 41.1724 28.0894C41.5732 28.7041 41.6157 29.4139 41.2716 29.7485C41.0167 29.9964 40.3522 30.0458 40.1693 29.8306ZM40.4799 25.6383C39.3519 25.3002 38.5953 24.2507 38.481 22.8656L38.4235 22.1694L37.7096 21.858C36.6778 21.4078 36.272 20.7033 36.7671 20.2219C37.0747 19.9228 37.3229 19.9462 37.9044 20.3294C38.5601 20.7614 38.9296 20.7516 39.4871 20.2876C40.0218 19.8425 40.2641 19.767 40.6145 19.9359C41.1325 20.1857 40.9789 20.8324 40.1955 21.7001C39.9325 21.9915 39.9042 22.1 39.945 22.6597C39.9939 23.3298 40.2024 23.7035 40.7481 24.0996C41.0738 24.3361 41.6168 24.3747 42.469 24.2219C42.8567 24.1525 42.9725 24.1753 43.1611 24.3587C43.3375 24.5303 43.3711 24.6601 43.313 24.9463C43.1635 25.6837 41.7682 26.0245 40.4799 25.6383Z" stroke="#1B1725" mask="url(#path-1-outside-1_208_354)"/>
<path fill-rule="evenodd" clip-rule="evenodd" d="M12.1383 15.4115L20.9581 15.4121L21.5395 15.3966C21.5395 15.3966 21.9574 15.5795 22.0452 15.7362C22.2651 16.1288 22.2746 16.7935 21.2631 16.8359C19.848 16.8953 12.0285 16.8656 12.0285 16.8656C12.0285 16.8656 10.6037 16.5465 11.5582 15.609C11.7033 15.4665 12.1383 15.4115 12.1383 15.4115Z" stroke="#1B1725" mask="url(#path-1-outside-1_208_354)"/>
</svg>
