<svg width="36" height="32" viewBox="0 0 36 32" fill="none" xmlns="http://www.w3.org/2000/svg">
<path d="M32.3971 4.79904H31.8824V4.32416C31.8824 2.49142 30.2659 1 28.2794 1H4.60294C2.6165 1 1 2.49142 1 4.32416V25.3005C1 26.0713 1.49862 26.7604 2.27068 27.0553C2.52703 27.1537 2.79544 27.201 3.06083 27.201C3.59565 27.201 4.1194 27.008 4.51448 26.6435L5.50192 25.7325C6.09108 26.83 7.3059 27.5933 8.72059 27.5933H29.3973L32.4855 30.4426C32.8806 30.8071 33.4044 31 33.9392 31C34.2046 31 34.473 30.9527 34.7293 30.8544C35.5014 30.5594 36 29.8703 36 29.0996V8.1232C36 6.29046 34.3835 4.79904 32.3971 4.79904ZM3.05882 25.3005V4.32416C3.05882 3.53857 3.75147 2.89952 4.60294 2.89952H28.2794C29.1309 2.89952 29.8235 3.53857 29.8235 4.32416V20.4701C29.8235 21.2557 29.1309 21.8947 28.2794 21.8947H7.60271C7.06086 21.8947 6.53007 22.0979 6.14706 22.4512L5.42055 23.1215L5.41791 23.124L3.05882 25.3005ZM33.9412 29.0996L30.8529 26.2503C30.4699 25.8969 29.9391 25.6938 29.3973 25.6938H8.72059C7.86911 25.6938 7.17647 25.0547 7.17647 24.2691V24.1875L7.60271 23.7942H28.2794C30.2659 23.7942 31.8824 22.3028 31.8824 20.4701V6.69856H32.3971C33.2485 6.69856 33.9412 7.33761 33.9412 8.1232V29.0996Z" fill="#1B1725" stroke="#1B1725" stroke-width="0.5"/>
<path d="M13.353 11.4474C13.922 11.4474 14.3824 11.0226 14.3824 10.4976C14.3824 9.45046 15.3062 8.59808 16.4412 8.59808C17.5762 8.59808 18.5 9.45046 18.5 10.4976C18.5 11.5448 17.5762 12.3971 16.4412 12.3971C15.8722 12.3971 15.4118 12.8219 15.4118 13.3469V14.2966C15.4118 14.8216 15.8722 15.2464 16.4412 15.2464C17.0102 15.2464 17.4706 14.8216 17.4706 14.2966V14.1761C19.2449 13.7541 20.5588 12.2645 20.5588 10.4976C20.5588 8.40238 18.7121 6.69856 16.4412 6.69856C14.1703 6.69856 12.3235 8.40238 12.3235 10.4976C12.3235 11.0226 12.784 11.4474 13.353 11.4474Z" fill="#1B1725" stroke="#1B1725" stroke-width="0.5"/>
<path d="M16.4412 18.0957C17.0097 18.0957 17.4706 17.6705 17.4706 17.1459C17.4706 16.6214 17.0097 16.1962 16.4412 16.1962C15.8726 16.1962 15.4117 16.6214 15.4117 17.1459C15.4117 17.6705 15.8726 18.0957 16.4412 18.0957Z" fill="#1B1725" stroke="#1B1725" stroke-width="0.5"/>
</svg>
