<svg width="31" height="31" viewBox="0 0 31 31" fill="none" xmlns="http://www.w3.org/2000/svg">
<path d="M30.1471 30.1471C29.0099 31.2843 27.1667 31.2843 26.0294 30.1471L20.8913 25.0089C18.7789 26.3641 16.2819 27.1715 13.5858 27.1715C6.08309 27.1715 0 21.0892 0 13.5857C0 6.08218 6.08309 0 13.5858 0C21.0894 0 27.1715 6.08206 27.1715 13.5857C27.1715 16.2809 26.3631 18.7789 25.0089 20.8923L30.1471 26.0305C31.2843 27.1677 31.2843 29.0099 30.1471 30.1471ZM13.5858 3.8816C8.22669 3.8816 3.88166 8.22566 3.88166 13.5856C3.88166 18.9456 8.22675 23.2897 13.5858 23.2897C18.9457 23.2897 23.2898 18.9456 23.2898 13.5856C23.2898 8.22566 18.9457 3.8816 13.5858 3.8816Z" fill="#1B1725"/>
</svg>
